<svg width="448" height="86" viewBox="0 0 448 86" fill="none" xmlns="http://www.w3.org/2000/svg">
<path d="M0.39 67V2.65H27.12C31.38 2.65 35.1 3.34 38.28 4.72C41.46 6.1 43.92 8.05 45.66 10.57C47.4 13.09 48.27 16.06 48.27 19.48C48.27 22.6 47.4 25.39 45.66 27.85C43.92 30.25 41.46 32.14 38.28 33.52C35.1 34.9 31.38 35.59 27.12 35.59H13.44V31H27.93C32.55 31 36.57 31.72 39.99 33.16C43.47 34.54 46.17 36.55 48.09 39.19C50.07 41.77 51.06 44.86 51.06 48.46C51.06 52.12 50.1 55.36 48.18 58.18C46.26 61 43.56 63.19 40.08 64.75C36.6 66.25 32.55 67 27.93 67H0.39ZM12.54 56.83H28.02C31.32 56.83 33.93 56.05 35.85 54.49C37.77 52.87 38.73 50.62 38.73 47.74C38.73 44.98 37.77 42.85 35.85 41.35C33.93 39.79 31.32 39.01 28.02 39.01H11.64V29.02H26.49C29.43 29.02 31.74 28.3 33.42 26.86C35.16 25.36 36.03 23.32 36.03 20.74C36.03 18.22 35.16 16.27 33.42 14.89C31.74 13.51 29.43 12.82 26.49 12.82H12.54V56.83ZM89.0224 20.92V31.72H86.5924C83.7724 31.72 81.3424 32.29 79.3024 33.43C77.2624 34.51 75.6424 36.22 74.4424 38.56C73.3024 40.9 72.7324 43.93 72.7324 47.65V67H60.8524V21.73H72.6424V36.4H71.2024C71.7424 32.38 72.8524 29.26 74.5324 27.04C76.2724 24.82 78.2824 23.26 80.5624 22.36C82.9024 21.4 85.1824 20.92 87.4024 20.92H89.0224ZM132.082 21.73H144.052L122.542 72.22C120.802 76.24 118.612 79.27 115.972 81.31C113.332 83.41 109.822 84.46 105.442 84.46H99.5918V74.74H104.812C106.612 74.74 108.112 74.32 109.312 73.48C110.572 72.7 111.562 71.44 112.282 69.7L113.272 67.09L93.9218 21.73H106.252L121.012 60.34H117.142L132.082 21.73Z" fill="#9054B0"/>
<path d="M168.184 56.56L174.304 50.62C176.044 52.72 178.054 54.52 180.334 56.02C182.614 57.52 185.074 58.69 187.714 59.53C190.354 60.37 193.144 60.79 196.084 60.79C199.384 60.79 202.294 60.31 204.814 59.35C207.334 58.33 209.314 56.95 210.754 55.21C212.194 53.47 212.914 51.43 212.914 49.09C212.914 46.03 211.564 43.63 208.864 41.89C206.224 40.09 201.664 38.71 195.184 37.75C189.304 36.85 184.594 35.65 181.054 34.15C177.514 32.65 174.934 30.76 173.314 28.48C171.694 26.14 170.884 23.38 170.884 20.2C170.884 16.48 171.934 13.18 174.034 10.3C176.134 7.42 179.014 5.2 182.674 3.63999C186.394 2.02 190.624 1.21 195.364 1.21C200.824 1.21 205.654 2.29 209.854 4.45C214.114 6.55 217.834 9.43 221.014 13.09L214.984 18.94C212.524 15.88 209.734 13.45 206.614 11.65C203.494 9.79 199.744 8.86 195.364 8.86C190.804 8.86 187.054 9.88 184.114 11.92C181.234 13.9 179.794 16.57 179.794 19.93C179.794 21.67 180.334 23.17 181.414 24.43C182.494 25.63 184.264 26.65 186.724 27.49C189.184 28.33 192.484 29.08 196.624 29.74C202.624 30.58 207.454 31.84 211.114 33.52C214.834 35.14 217.534 37.21 219.214 39.73C220.954 42.25 221.824 45.28 221.824 48.82C221.824 52.72 220.714 56.14 218.494 59.08C216.334 62.02 213.304 64.33 209.404 66.01C205.564 67.63 201.124 68.44 196.084 68.44C190.144 68.44 184.864 67.39 180.244 65.29C175.624 63.13 171.604 60.22 168.184 56.56ZM241.765 67H233.395V22.36H241.765V67ZM237.625 11.83C236.065 11.83 234.715 11.32 233.575 10.3C232.495 9.22 231.955 7.9 231.955 6.34C231.955 4.78 232.495 3.46 233.575 2.38C234.715 1.29999 236.065 0.759995 237.625 0.759995C239.185 0.759995 240.505 1.29999 241.585 2.38C242.665 3.46 243.205 4.78 243.205 6.34C243.205 7.9 242.665 9.22 241.585 10.3C240.505 11.32 239.185 11.83 237.625 11.83ZM300.14 62.68C300.14 67.24 299.09 71.26 296.99 74.74C294.95 78.22 292.13 80.95 288.53 82.93C284.93 84.91 280.79 85.9 276.11 85.9C271.85 85.9 267.98 85.15 264.5 83.65C261.02 82.21 258.14 80.2 255.86 77.62L261.08 72.04C262.76 74.14 264.8 75.79 267.2 76.99C269.66 78.19 272.57 78.79 275.93 78.79C279.11 78.79 281.87 78.1 284.21 76.72C286.61 75.4 288.47 73.54 289.79 71.14C291.11 68.8 291.77 66.04 291.77 62.86V45.67C291.77 41.83 291.05 38.62 289.61 36.04C288.17 33.46 286.28 31.51 283.94 30.19C281.66 28.81 279.17 28.12 276.47 28.12C273.53 28.12 270.89 28.84 268.55 30.28C266.27 31.72 264.5 33.67 263.24 36.13C261.98 38.53 261.35 41.26 261.35 44.32C261.35 47.44 261.98 50.2 263.24 52.6C264.56 55 266.36 56.89 268.64 58.27C270.98 59.59 273.71 60.25 276.83 60.25C279.59 60.25 282.11 59.68 284.39 58.54C286.67 57.4 288.53 55.84 289.97 53.86C291.47 51.82 292.34 49.51 292.58 46.93L294.29 48.64C294.71 52.24 294.11 55.45 292.49 58.27C290.93 61.09 288.65 63.34 285.65 65.02C282.71 66.64 279.29 67.45 275.39 67.45C271.07 67.45 267.17 66.49 263.69 64.57C260.27 62.59 257.57 59.86 255.59 56.38C253.61 52.84 252.62 48.82 252.62 44.32C252.62 39.76 253.61 35.74 255.59 32.26C257.63 28.72 260.33 25.96 263.69 23.98C267.11 21.94 270.92 20.92 275.12 20.92C278.18 20.92 281 21.49 283.58 22.63C286.22 23.77 288.44 25.48 290.24 27.76C292.04 29.98 293.21 32.74 293.75 36.04H291.86V22.36H300.14V62.68ZM354.65 67H346.28V41.26C346.28 36.88 345.29 33.61 343.31 31.45C341.33 29.23 338.66 28.12 335.3 28.12C332.9 28.12 330.62 28.75 328.46 30.01C326.3 31.27 324.56 33.25 323.24 35.95C321.92 38.65 321.26 42.13 321.26 46.39V67H312.89V22.36H321.17V36.04H319.91C320.57 32.26 321.77 29.29 323.51 27.13C325.25 24.91 327.32 23.32 329.72 22.36C332.12 21.4 334.61 20.92 337.19 20.92C342.59 20.92 346.85 22.6 349.97 25.96C353.09 29.26 354.65 34.06 354.65 40.36V67ZM404.768 53.86L409.988 59.26C407.648 62.14 404.768 64.39 401.348 66.01C397.988 67.63 394.178 68.44 389.918 68.44C385.058 68.44 380.738 67.42 376.958 65.38C373.178 63.34 370.208 60.55 368.048 57.01C365.948 53.41 364.898 49.3 364.898 44.68C364.898 40.06 365.918 35.98 367.958 32.44C369.998 28.84 372.818 26.02 376.418 23.98C380.018 21.94 384.068 20.92 388.568 20.92C392.948 20.92 396.818 21.94 400.178 23.98C403.598 25.96 406.268 28.72 408.188 32.26C410.168 35.74 411.158 39.79 411.158 44.41V44.95H402.698V44.14C402.698 40.9 402.098 38.08 400.898 35.68C399.698 33.22 398.018 31.33 395.858 30.01C393.758 28.63 391.328 27.94 388.568 27.94C385.628 27.94 383.018 28.63 380.738 30.01C378.458 31.39 376.688 33.34 375.428 35.86C374.168 38.32 373.538 41.23 373.538 44.59C373.538 47.95 374.228 50.92 375.608 53.5C377.048 56.02 379.028 57.97 381.548 59.35C384.068 60.73 386.948 61.42 390.188 61.42C396.128 61.42 400.988 58.9 404.768 53.86ZM411.158 47.47H371.108V41.26H409.718L411.158 44.41V47.47ZM447.205 21.64V29.56H445.225C442.525 29.56 440.035 30.22 437.755 31.54C435.535 32.8 433.735 34.81 432.355 37.57C431.035 40.27 430.375 43.81 430.375 48.19V67H422.005V22.36H430.285V36.67H429.025C429.685 32.89 430.885 29.92 432.625 27.76C434.425 25.6 436.495 24.04 438.835 23.08C441.175 22.12 443.575 21.64 446.035 21.64H447.205Z" fill="#999999"/>
</svg>
